<?xml version="1.0" encoding="UTF-8" standalone="no"?>
<svg
   width="22"
   height="22"
   version="1.1"
   id="svg4"
   alt="GitHub"
   xmlns="http://www.w3.org/2000/svg"
   xmlns:svg="http://www.w3.org/2000/svg">
  <defs
     id="defs8" />
  <path
     fill-rule="evenodd"
     clip-rule="evenodd"
     d="m 11.045138,0.31255344 c -6.0312721,0 -10.90696908,4.87900626 -10.90696908,10.91500356 0,4.824894 3.12402708,8.909065 7.45788088,10.354581 0.5418436,0.108664 0.7403185,-0.234857 0.7403185,-0.523827 0,-0.253043 -0.01786,-1.120398 -0.01786,-2.024123 C 5.2844527,19.68487 4.652637,17.733046 4.652637,17.733046 4.165045,16.468052 3.4425871,16.142934 3.4425871,16.142934 c -0.9930445,-0.668645 0.072335,-0.668645 0.072335,-0.668645 1.1015473,0.0723 1.6795581,1.120397 1.6795581,1.120397 0.9749609,1.662409 2.5460166,1.192694 3.1780556,0.903502 0.090196,-0.704795 0.3793126,-1.192694 0.6862902,-1.463701 -2.4198769,-0.253043 -4.965893,-1.192696 -4.965893,-5.385314 0,-1.1926954 0.4331174,-2.1684969 1.1194076,-2.9274052 -0.1082788,-0.2710065 -0.487592,-1.3916255 0.108502,-2.8914763 0,0 0.9209328,-0.289192 2.9974412,1.1203971 A 10.486354,10.416678 0 0 1 11.045138,5.5891987 c 0.920933,0 1.859726,0.1266324 2.726631,0.3614899 2.076732,-1.4095891 2.997664,-1.1203971 2.997664,-1.1203971 0.596096,1.4998508 0.216559,2.6204698 0.108281,2.8914763 0.704374,0.7589083 1.11963,1.7347098 1.11963,2.9274052 0,4.192618 -2.546016,5.114084 -4.983976,5.385314 0.397397,0.343304 0.740319,0.993764 0.740319,2.0239 0,1.463702 -0.01787,2.638433 -0.01787,2.999702 0,0.289192 0.198699,0.632718 0.740319,0.524271 4.333854,-1.445959 7.45788,-5.529909 7.45788,-10.354803 C 21.951886,5.1915597 17.058325,0.31255344 11.045136,0.31255344 Z"
     fill="#24292f"
     id="path2"
     style="fill:#000000;fill-opacity:1;stroke-width:0.222514" />
</svg>
