<?xml version="1.0" encoding="UTF-8" standalone="no"?>
<svg
   width="18"
   height="18"
   version="1.1"
   id="svg4"
   alt="GitHub"
   xmlns="http://www.w3.org/2000/svg"
   xmlns:svg="http://www.w3.org/2000/svg">
  <defs
     id="defs8" />
  <path
     fill-rule="evenodd"
     clip-rule="evenodd"
     d="m 8.9841118,0.31255344 c -4.8915779,0 -8.84594288,3.95704886 -8.84594288,8.85245906 0,3.9131615 2.53369788,7.2255705 6.04860858,8.3979365 0.4394546,0.08813 0.6004249,-0.190478 0.6004249,-0.424843 0,-0.205227 -0.014485,-0.908683 -0.014485,-1.641636 C 4.3119895,16.024196 3.7995643,14.441197 3.7995643,14.441197 3.4041097,13.415242 2.8181705,13.151559 2.8181705,13.151559 c -0.8053947,-0.542295 0.058666,-0.542295 0.058666,-0.542295 0.8933943,0.05864 1.3621818,0.908682 1.3621818,0.908682 0.7907282,1.348274 2.0649107,0.967318 2.577517,0.732773 0.073152,-0.571614 0.3076361,-0.967318 0.5566059,-1.187114 C 5.4105346,12.858378 3.3456243,12.096286 3.3456243,8.6959222 3.3456243,7.7286036 3.696898,6.9371936 4.253504,6.3216918 4.165686,6.1018958 3.8580494,5.1930336 4.341503,3.9766009 c 0,0 0.7469095,-0.2345451 2.4310322,0.9086822 A 8.5048088,8.4482995 0 0 1 8.9841118,4.5921018 c 0.7469095,0 1.5083042,0.1027034 2.2113952,0.2931813 1.684304,-1.1432273 2.431213,-0.9086822 2.431213,-0.9086822 0.483455,1.2164327 0.175637,2.1252949 0.08782,2.3450909 0.571272,0.6155018 0.90806,1.4069118 0.90806,2.3742304 0,3.4003638 -2.06491,4.1477058 -4.042183,4.3676828 0.322303,0.278432 0.600425,0.805978 0.600425,1.641455 0,1.187115 -0.01449,2.139864 -0.01449,2.432866 0,0.234545 0.161152,0.513157 0.600425,0.425203 3.514911,-1.172725 6.048608,-4.484955 6.048608,-8.3981165 0.01449,-4.8954102 -3.954363,-8.85245906 -8.8312752,-8.85245906 z"
     fill="#24292f"
     id="path2"
     style="fill:#000000;fill-opacity:1;stroke-width:0.180467" />
</svg>
